<svg xmlns="http://www.w3.org/2000/svg" xmlns:xlink="http://www.w3.org/1999/xlink" fill="none" version="1.1" width="91" height="30" viewBox="0 0 91 30"><g><g><path d="M39.92028190429687,7.33331298828125Q42.598861904296875,7.33331298828125,44.290951904296875,8.67098298828125Q45.91455190429687,9.93545298828125,46.27075190429687,12.15825298828125L43.87305190429687,12.15825298828125Q43.49625190429688,10.66086298828125,42.46185190429688,9.95542298828125Q41.475361904296875,9.269942988281251,39.872321904296875,9.269942988281251Q37.49516190429688,9.269942988281251,36.31686190429687,10.91375298828125Q35.22076190429688,12.37122298828125,35.22076190429688,15.019942988281251Q35.22076190429688,17.71521298828125,36.29631190429687,19.16611298828125Q37.47461190429688,20.73001298828125,39.93398190429687,20.73001298828125Q41.537011904296875,20.73001298828125,42.564611904296875,19.93801298828125Q43.64015190429687,19.08621298828125,44.085451904296875,17.33591298828125L46.483151904296875,17.33591298828125Q45.97625190429687,19.898112988281248,44.13335190429687,21.32231298828125Q42.407041904296875,22.66661298828125,39.96823190429687,22.66661298828125Q36.227801904296875,22.66661298828125,34.378141904296875,20.350712988281252Q32.781951904296875,18.38741298828125,32.781951904296875,15.019942988281251Q32.781951904296875,11.699052988281249,34.44665190429688,9.66925298828125Q36.31001190429687,7.33331298828125,39.92028190429687,7.33331298828125ZM48.14485190429687,7.54627598828125L50.58365190429687,7.54627598828125L50.58365190429687,22.45371298828125L48.14485190429687,22.45371298828125L48.14485190429687,7.54627598828125ZM52.108351904296875,7.54627598828125L64.38455190429687,7.54627598828125L64.38455190429687,9.48291298828125L59.56175190429688,9.48291298828125L59.56175190429688,22.45371298828125L57.122951904296876,22.45371298828125L57.122951904296876,9.48291298828125L52.108351904296875,9.48291298828125L52.108351904296875,7.54627598828125ZM65.71745190429687,7.54627598828125L76.45915190429687,7.54627598828125L76.45915190429687,9.48291298828125L68.15625190429688,9.48291298828125L68.15625190429688,13.935162988281249L76.02075190429687,13.935162988281249L76.02075190429687,15.87180298828125L68.15625190429688,15.87180298828125L68.15625190429688,20.51701298828125L76.89765190429688,20.51701298828125L76.89765190429688,22.45371298828125L65.71745190429687,22.45371298828125L65.71745190429687,7.54627598828125ZM77.57965190429687,7.54627598828125L80.58705190429689,7.54627598828125L84.12195190429688,12.81045298828125L87.65695190429688,7.54627598828125L90.66435190429686,7.54627598828125L85.59485190429687,14.74708298828125L90.99995190429688,22.45371298828125L87.99255190429687,22.45371298828125L84.12195190429688,16.69037298828125L80.25145190429687,22.45371298828125L77.23715190429687,22.45371298828125L82.60795190429687,14.74708298828125L77.57965190429687,7.54627598828125Z" fill="#186CFC" fill-opacity="1"/></g><g><g><g><path d="M13.5341,11.729561720972061L15.1818,14.702581720972061L18.7769,14.702581720972061L16.979300000000002,11.729561720972061L13.5341,11.729561720972061ZM2,14.999881720972061L8.291319999999999,25.702681720972063L14.5826,14.999881720972061L12.7851,12.175511720972061L8.590910000000001,19.45938172097206L5.894629999999999,14.999881720972061L10.23864,7.715991720972061L8.291319999999999,4.445681720972061L2,14.999881720972061ZM8.8905,25.999981720972063L12.3357,25.999981720972063L18.6271,15.445781720972061L15.1818,15.445781720972061L8.8905,25.999981720972063ZM13.2345,25.999981720972063L16.6798,25.999981720972063L22.9711,15.445781720972061L19.5258,15.445781720972061L13.2345,25.999981720972063ZM21.9225,18.716081720972063L25.8172,18.716081720972063L27.7645,15.445781720972061L23.8698,15.445781720972061L21.9225,18.716081720972063ZM19.9752,21.986481720972062L23.4205,21.986481720972062L21.7727,19.16208172097206L19.9752,21.986481720972062ZM17.5785,25.999981720972063L21.4731,25.999981720972063L23.4205,22.72968172097206L19.5258,22.72968172097206L17.5785,25.999981720972063Z" fill="#186CFC" fill-opacity="1"/></g><g><path d="M8.890337944030762,4L10.837647944030762,7.27031L14.732277944030763,7.27031L12.784967944030761,4L8.890337944030762,4ZM15.18165794403076,7.27031L18.626907944030762,7.27031L16.979187944030762,4.445952L15.18165794403076,7.27031ZM11.287027944030761,8.01356L13.084557944030761,10.98657L21.77253794403076,10.98657L23.869637944030764,14.7028L27.76433794403076,14.7028L21.47293794403076,4L17.578357944030763,4L19.97503794403076,8.01356L11.287027944030761,8.01356ZM17.877947944030762,11.72983L19.525637944030763,14.7028L22.970937944030762,14.7028L21.323237944030762,11.72983L17.877947944030762,11.72983Z" fill="#186CFC" fill-opacity="1"/></g><g><path d="M6.79357385635376,15.00019119216919L8.441303856353759,17.82455119216919L12.33593385635376,11.28393119216919L10.53841385635376,8.31092119216919L6.79357385635376,15.00019119216919Z" fill="#186CFC" fill-opacity="1"/></g></g><g></g></g></g></svg>