<svg xmlns="http://www.w3.org/2000/svg" xmlns:xlink="http://www.w3.org/1999/xlink" fill="none" version="1.1" width="133" height="33" viewBox="0 0 133 33"><g><g><path d="M56.6674,5Q60.6702,5,63.198899999999995,7.0065100000000005Q65.6251,8.90321,66.1575,12.23742L62.5744,12.23742Q62.0113,9.99132,60.4655,8.93316Q58.9913,7.9049499999999995,56.5957,7.9049499999999995Q53.04334,7.9049499999999995,51.2825,10.37066Q49.64452,12.55686,49.64452,16.53Q49.64452,20.5729,51.25179,22.7491Q53.01263,25.0951,56.6879,25.0951Q59.0834,25.0951,60.619,23.9071Q62.226299999999995,22.6293,62.8917,20.0039L66.4748,20.0039Q65.7173,23.8472,62.9634,25.9835Q60.3836,28,56.739000000000004,28Q51.14942,28,48.38532,24.526Q46,21.5812,46,16.53Q46,11.54861,48.48769,8.50391Q51.27227,5,56.6674,5ZM68.958,5.319445L72.60249999999999,5.319445L72.60249999999999,27.6806L68.958,27.6806L68.958,5.319445ZM74.881,5.319445L93.2264,5.319445L93.2264,8.22439L86.0193,8.22439L86.0193,27.6806L82.3748,27.6806L82.3748,8.22439L74.881,8.22439L74.881,5.319445ZM95.2182,5.319445L111.2705,5.319445L111.2705,8.22439L98.86269999999999,8.22439L98.86269999999999,14.90278L110.6153,14.90278L110.6153,17.8077L98.86269999999999,17.8077L98.86269999999999,24.7756L111.9257,24.7756L111.9257,27.6806L95.2182,27.6806L95.2182,5.319445ZM112.9449,5.319445L117.4391,5.319445L122.7216,13.21571L128.0042,5.319445L132.4984,5.319445L124.9227,16.1207L133,27.6806L128.5058,27.6806L122.7216,19.035600000000002L116.9375,27.6806L112.433,27.6806L120.4592,16.1207L112.9449,5.319445Z" fill="#000000" fill-opacity="1"/></g><g><g><path d="M17.2363,11.594322596359254L19.6987,16.053822596359254L25.0711,16.053822596359254L22.3849,11.594322596359254L17.2363,11.594322596359254ZM0,16.49982259635925L9.40164,32.55402259635925L18.8033,16.49982259635925L16.1171,12.263222596359252L9.84934,23.189122596359255L5.82007,16.49982259635925L12.3117,5.573992596359253L9.40164,0.6685225963592529L0,16.49982259635925ZM10.297,33.00002259635925L15.4456,33.00002259635925L24.8472,17.168722596359252L19.6987,17.168722596359252L10.297,33.00002259635925ZM16.7886,33.00002259635925L21.9372,33.00002259635925L31.3388,17.168722596359252L26.1903,17.168722596359252L16.7886,33.00002259635925ZM29.7719,22.074222596359252L35.5919,22.074222596359252L38.502,17.168722596359252L32.6819,17.168722596359252L29.7719,22.074222596359252ZM26.8618,26.979622596359253L32.0104,26.979622596359253L29.548,22.743122596359253L26.8618,26.979622596359253ZM23.2803,33.00002259635925L29.1003,33.00002259635925L32.0104,28.09452259635925L26.1903,28.09452259635925L23.2803,33.00002259635925Z" fill="#186CFC" fill-opacity="1"/></g><g><path d="M10.296797752380371,0L13.20682775238037,4.90547L19.02689775238037,4.90547L16.11685775238037,0L10.296797752380371,0ZM19.69843775238037,4.90547L24.84699775238037,4.90547L22.384597752380373,0.668927L19.69843775238037,4.90547ZM13.878377752380372,6.02035L16.56455775238037,10.4799L29.547797752380372,10.4799L32.68169775238037,16.0543L38.501697752380366,16.0543L29.10009775238037,0L23.27999775238037,0L26.861597752380373,6.02035L13.878377752380372,6.02035ZM23.727697752380372,11.5947L26.19009775238037,16.0543L31.33859775238037,16.0543L28.87619775238037,11.5947L23.727697752380372,11.5947Z" fill="#186CFC" fill-opacity="1"/></g><g><path d="M7.163431167602539,16.500282026672362L9.62577116760254,20.736782026672365L15.44583116760254,10.925892026672363L12.759651167602538,6.466382026672363L7.163431167602539,16.500282026672362Z" fill="#186CFC" fill-opacity="1"/></g></g></g></svg>